# xmcd
#
# Track frame offsets: 
#        150
#        13446
#        30242
#        47142
#        62037
#        75365
#        90493
#        106260
#        120770
#        135032
#        149005
#        159158
#        171657
#        181880
#        190877
#
# Disc length: 2733 seconds
#
# Revision: 0
# Processed by: cddbd v1.5.1PL2 Copyright (c) Steve Scherf et al.
# Submitted via: ExactAudioCopy v0.95b1
#
DISCID=b60aab0f
DTITLE=Ulli Kron - Piano Solo
DYEAR=2000
DGENRE=Blues
TTITLE0=Suspension Railway Boogie
TTITLE1=Beautiful Island Blues
TTITLE2=B and K Blues
TTITLE3=Athens Walk
TTITLE4=Sunset At The Windmill
TTITLE5=Where's The Bar?
TTITLE6=The Morning After Blues
TTITLE7=Kronos' Kritikos Krassi
TTITLE8=Where Ever I Go
TTITLE9=Song For Manuela
TTITLE10=Gerestou No. 4
TTITLE11=Rainy Day Blues
TTITLE12=Amalour Groove
TTITLE13=Jumping On The Train
TTITLE14=Leavin' Again
EXTD=
EXTT0=
EXTT1=
EXTT2=
EXTT3=
EXTT4=
EXTT5=
EXTT6=
EXTT7=
EXTT8=
EXTT9=
EXTT10=
EXTT11=
EXTT12=
EXTT13=
EXTT14=
PLAYORDER=
